<?xml version="1.0" encoding="UTF-8" standalone="no"?>
<svg
   inkscape:version="1.4.2 (ebf0e940d0, 2025-05-08)"
   sodipodi:docname="Logo_LG_Physiksammlung.svg"
   viewBox="0 0 2106.3305 737.00798"
   height="737.008"
   width="2106.3306"
   xml:space="preserve"
   id="svg2"
   version="1.1"
   xmlns:inkscape="http://www.inkscape.org/namespaces/inkscape"
   xmlns:sodipodi="http://sodipodi.sourceforge.net/DTD/sodipodi-0.dtd"
   xmlns="http://www.w3.org/2000/svg"
   xmlns:svg="http://www.w3.org/2000/svg"
   xmlns:rdf="http://www.w3.org/1999/02/22-rdf-syntax-ns#"
   xmlns:cc="http://creativecommons.org/ns#"
   xmlns:dc="http://purl.org/dc/elements/1.1/"><metadata
     id="metadata8"><rdf:RDF><cc:Work
         rdf:about=""><dc:format>image/svg+xml</dc:format><dc:type
           rdf:resource="http://purl.org/dc/dcmitype/StillImage" /></cc:Work></rdf:RDF></metadata><defs
     id="defs6"><clipPath
       clipPathUnits="userSpaceOnUse"
       id="clipPath1"><path
         id="path1"
         d="m -272.3815,403.212 h 1190.55 v -841.89 h -1190.55 z"
         style="stroke-width:0.999998" /></clipPath><clipPath
       clipPathUnits="userSpaceOnUse"
       id="clipPath2"><path
         id="path2"
         d="m -173.0166,291.6413 h 1190.55 v -841.89 h -1190.55 z"
         style="stroke-width:0.999998" /></clipPath></defs><sodipodi:namedview
     inkscape:current-layer="g18"
     inkscape:window-maximized="1"
     inkscape:window-y="0"
     inkscape:window-x="0"
     inkscape:cy="185.4482"
     inkscape:cx="894.25262"
     inkscape:zoom="1.121607"
     showgrid="false"
     id="namedview4"
     inkscape:window-height="1371"
     inkscape:window-width="2560"
     inkscape:pageshadow="2"
     inkscape:pageopacity="0"
     guidetolerance="10"
     gridtolerance="10"
     objecttolerance="10"
     borderopacity="1"
     bordercolor="#666666"
     pagecolor="#ffffff"
     inkscape:showpageshadow="2"
     inkscape:pagecheckerboard="0"
     inkscape:deskcolor="#d1d1d1"
     showguides="true"><sodipodi:guide
       position="426.05052,809.89029"
       orientation="1,0"
       id="guide4"
       inkscape:locked="false" /><sodipodi:guide
       position="582.84745,752.6827"
       orientation="0,-1"
       id="guide5"
       inkscape:locked="false" /><sodipodi:guide
       position="492.61321,364.73034"
       orientation="0,-1"
       id="guide8"
       inkscape:locked="false" /></sodipodi:namedview><g
     transform="matrix(1.3333333,0,0,-1.3333333,-183.21946,939.21331)"
     inkscape:label="Logo_LGY"
     inkscape:groupmode="layer"
     id="g10"><g
       id="g18"><path
         id="path140"
         style="fill:#cf472e;fill-opacity:1;fill-rule:nonzero;stroke:none"
         d="M 138.228,151.654 H 414.606 V 428.032 H 138.228 Z" /><path
         id="path142"
         style="fill:#000000;fill-opacity:1;fill-rule:nonzero;stroke:none"
         d="M 138.228,428.032 H 414.606 V 704.41 H 138.228 Z" /><g
         transform="translate(173.0166,550.2487)"
         id="g144"
         clip-path="url(#clipPath2)"><path
           id="path146"
           style="fill:#ffffff;fill-opacity:1;fill-rule:nonzero;stroke:none"
           d="m 0,0 v -91.574 h 56.706 v -30.648 H -35.602 V 0 Z" /></g><g
         transform="translate(288.82285,425.4585)"
         id="g148"
         clip-path="url(#clipPath1)"><path
           id="path150"
           style="fill:#ffffff;fill-opacity:1;fill-rule:nonzero;stroke:none"
           d="m 0,0 c -34.501,0 -54.323,20.919 -54.323,55.421 v 16.15 c 0,33.583 22.941,55.972 60.744,55.972 33.768,0 54.138,-15.965 54.138,-43.494 V 81.664 H 25.324 v 1.652 c 0,8.44 -5.505,15.231 -18.903,15.231 -16.517,0 -24.59,-11.378 -24.59,-27.71 V 56.339 c 0,-17.435 7.158,-28.262 24.041,-28.262 13.395,0 22.205,7.525 23.124,18.718 H 5.506 V 69.367 H 62.394 V 2.568 H 47.529 L 42.208,20.737 C 35.05,9.908 22.387,0 0,0" /></g><g
         id="text1"
         style="font-weight:bold;font-size:120px;line-height:0;font-family:'Ringside Regular Office';-inkscape-font-specification:'Ringside Regular Office, Bold';letter-spacing:-0.975px;stroke-width:6"
         transform="scale(1,-1)"
         aria-label="Liechtensteinisches&#10;Gymnasium&#10;Physiksammlung"><path
           style="line-height:1.1"
           d="m 479.75255,-643.30376 v 69.84 h 42.6 v 16.92 h -61.8 v -86.76 z m 74.98496,-4.68 v 15.24 h -19.44 v -15.24 z m -0.24,26.04 v 65.4 h -18.84 v -65.4 z m 47.26493,-1.92 q 8.04,0 13.92,2.4 6,2.4 9.84,6.72 3.96,4.32 5.76,10.2 1.92,5.88 1.92,12.72 v 6.72 h -46.56 v 0.12 q 0,7.68 3.96,11.76 4.08,3.96 12.12,3.96 3.84,0 6.48,-0.72 2.76,-0.84 4.44,-2.04 1.68,-1.2 2.4,-2.64 0.84,-1.44 0.84,-2.76 v -0.12 h 16.08 v 0.72 q 0,4.56 -2.04,8.64 -1.92,3.96 -5.76,6.96 -3.84,3 -9.6,4.8 -5.64,1.8 -13.08,1.8 -8.28,0 -14.52,-2.28 -6.24,-2.4 -10.44,-6.72 -4.08,-4.32 -6.12,-10.32 -2.04,-6 -2.04,-13.32 v -3.48 q 0,-7.2 2.16,-13.32 2.16,-6.12 6.24,-10.44 4.2,-4.44 10.2,-6.84 6,-2.52 13.8,-2.52 z m 0,14.4 q -11.4,0 -14.28,9.36 -0.6,2.16 -0.84,5.16 h 29.04 q -0.12,-1.32 -0.24,-2.52 -0.12,-1.2 -0.36,-2.28 -1.2,-4.92 -4.44,-7.32 -3.12,-2.4 -8.88,-2.4 z m 74.74502,-14.4 q 7.2,0 12.72,1.92 5.52,1.92 9.24,5.4 3.72,3.36 5.52,7.92 1.92,4.56 1.92,9.72 v 2.16 h -17.16 v -0.24 q 0,-5.28 -3,-8.64 -3,-3.48 -9.48,-3.48 -6.96,0 -10.56,4.68 -3.6,4.68 -3.6,12.6 v 5.16 q 0,7.92 3.6,12.6 3.6,4.68 10.56,4.68 6.48,0 9.48,-3.36 3,-3.36 3,-8.76 v -0.12 h 17.16 v 2.04 q 0,5.16 -1.92,9.72 -1.92,4.44 -5.64,7.92 -3.6,3.36 -9.12,5.4 -5.52,1.92 -12.72,1.92 -15.72,0 -24.24,-8.76 -8.52,-8.88 -8.52,-24.48 v -2.76 q 0,-7.68 2.28,-13.8 2.28,-6.24 6.48,-10.56 4.32,-4.32 10.32,-6.6 6.12,-2.28 13.68,-2.28 z m 62.50512,-26.52 v 38.64 q 4.2,-5.28 9.36,-8.52 5.28,-3.24 13.2,-3.24 10.2,0 15.96,6.12 5.88,6.12 5.88,16.8 v 44.04 h -18.72 v -40.8 q 0,-5.16 -2.76,-8.16 -2.64,-3.12 -8.28,-3.12 -3.24,0 -6,1.2 -2.64,1.2 -4.56,3.24 -1.92,1.92 -3,4.44 -1.08,2.4 -1.08,5.04 v 38.16 h -18.84 v -93.84 z m 67.18496,28.44 v -13.32 l 18.6,-4.32 v 17.64 h 18.72 v 14.04 h -18.72 v 26.28 q 0,3.24 0.48,5.4 0.48,2.16 1.68,3.48 1.32,1.32 3.36,1.92 2.16,0.48 5.28,0.48 h 3.96 v 13.8 h -9.12 q -12.84,0 -18.6,-5.64 -5.64,-5.64 -5.64,-16.2 v -29.52 h -11.52 v -14.04 z m 77.86514,-1.92 q 8.04,0 13.92,2.4 6,2.4 9.84,6.72 3.96,4.32 5.76,10.2 1.92,5.88 1.92,12.72 v 6.72 h -46.56 v 0.12 q 0,7.68 3.96,11.76 4.08,3.96 12.12,3.96 3.84,0 6.48,-0.72 2.76,-0.84 4.44,-2.04 1.68,-1.2 2.4,-2.64 0.84,-1.44 0.84,-2.76 v -0.12 h 16.08 v 0.72 q 0,4.56 -2.04,8.64 -1.92,3.96 -5.76,6.96 -3.84,3 -9.6,4.8 -5.64,1.8 -13.08,1.8 -8.28,0 -14.52,-2.28 -6.24,-2.4 -10.44,-6.72 -4.08,-4.32 -6.12,-10.32 -2.04,-6 -2.04,-13.32 v -3.48 q 0,-7.2 2.16,-13.32 2.16,-6.12 6.24,-10.44 4.2,-4.44 10.2,-6.84 6,-2.52 13.8,-2.52 z m 0,14.4 q -11.4,0 -14.28,9.36 -0.6,2.16 -0.84,5.16 h 29.04 q -0.12,-1.32 -0.24,-2.52 -0.12,-1.2 -0.36,-2.28 -1.2,-4.92 -4.44,-7.32 -3.12,-2.4 -8.88,-2.4 z m 61.90504,-12.48 1.44,11.76 q 4.32,-5.76 9.84,-9.48 5.64,-3.84 14.04,-3.84 10.2,0 15.96,6.12 5.88,6.12 5.88,16.8 v 44.04 h -18.72 v -40.8 q 0,-5.16 -2.76,-8.16 -2.64,-3.12 -8.28,-3.12 -3.24,0 -6,1.2 -2.64,1.2 -4.56,3.24 -1.92,1.92 -3,4.44 -1.08,2.4 -1.08,5.04 v 38.16 h -18.84 v -65.4 z m 90.46498,-1.92 q 13.68,0 21.12,5.88 7.44,5.76 7.44,15.96 v 1.44 h -15.72 v -0.36 q 0,-4.56 -3.48,-6.96 -3.36,-2.52 -9.6,-2.52 -5.16,0 -8.04,1.8 -2.88,1.8 -2.88,4.56 0,1.44 0.72,2.52 0.72,1.08 2.4,2.04 1.68,0.84 4.56,1.68 2.88,0.72 7.08,1.68 6.72,1.2 11.64,2.88 4.92,1.56 8.16,3.96 3.24,2.4 4.8,5.76 1.56,3.36 1.56,7.92 0,4.44 -1.92,8.28 -1.8,3.84 -5.52,6.72 -3.72,2.88 -9.24,4.44 -5.52,1.68 -12.84,1.68 -7.92,0 -13.56,-1.68 -5.52,-1.68 -9.12,-4.56 -3.6,-3 -5.28,-7.08 -1.68,-4.2 -1.68,-9.24 v -2.04 h 15.84 v 1.08 q 0,4.44 3.36,7.2 3.36,2.76 10.68,2.76 6.36,0 9.12,-1.8 2.88,-1.92 2.88,-4.8 0,-1.44 -0.72,-2.52 -0.6,-1.08 -2.28,-1.92 -1.68,-0.96 -4.56,-1.8 -2.88,-0.84 -7.32,-1.92 -6.6,-1.2 -11.52,-2.76 -4.8,-1.68 -8.04,-4.08 -3.12,-2.4 -4.68,-5.64 -1.56,-3.24 -1.56,-7.68 0,-4.32 1.92,-8.04 1.92,-3.84 5.52,-6.72 3.6,-2.88 8.76,-4.44 5.28,-1.68 12,-1.68 z m 47.9848,1.92 v -13.32 l 18.6,-4.32 v 17.64 h 18.72 v 14.04 h -18.72 v 26.28 q 0,3.24 0.48,5.4 0.48,2.16 1.68,3.48 1.32,1.32 3.36,1.92 2.16,0.48 5.28,0.48 h 3.96 v 13.8 h -9.12 q -12.84,0 -18.6,-5.64 -5.64,-5.64 -5.64,-16.2 v -29.52 h -11.52 v -14.04 z m 77.8652,-1.92 q 8.04,0 13.92,2.4 6,2.4 9.84,6.72 3.96,4.32 5.76,10.2 1.92,5.88 1.92,12.72 v 6.72 h -46.56 v 0.12 q 0,7.68 3.96,11.76 4.08,3.96 12.12,3.96 3.84,0 6.48,-0.72 2.76,-0.84 4.44,-2.04 1.68,-1.2 2.4,-2.64 0.84,-1.44 0.84,-2.76 v -0.12 h 16.08 v 0.72 q 0,4.56 -2.04,8.64 -1.92,3.96 -5.76,6.96 -3.84,3 -9.6,4.8 -5.64,1.8 -13.08,1.8 -8.28,0 -14.52,-2.28 -6.24,-2.4 -10.44,-6.72 -4.08,-4.32 -6.12,-10.32 -2.04,-6 -2.04,-13.32 v -3.48 q 0,-7.2 2.16,-13.32 2.16,-6.12 6.24,-10.44 4.2,-4.44 10.2,-6.84 6,-2.52 13.8,-2.52 z m 0,14.4 q -11.4,0 -14.28,9.36 -0.6,2.16 -0.84,5.16 h 29.04 q -0.12,-1.32 -0.24,-2.52 -0.12,-1.2 -0.36,-2.28 -1.2,-4.92 -4.44,-7.32 -3.12,-2.4 -8.88,-2.4 z m 65.265,-38.52 v 15.24 h -19.44 v -15.24 z m -0.24,26.04 v 65.4 h -18.84 v -65.4 z m 34.7849,0 1.44,11.76 q 4.32,-5.76 9.84,-9.48 5.64,-3.84 14.04,-3.84 10.2,0 15.96,6.12 5.88,6.12 5.88,16.8 v 44.04 h -18.72 v -40.8 q 0,-5.16 -2.76,-8.16 -2.64,-3.12 -8.28,-3.12 -3.24,0 -6,1.2 -2.64,1.2 -4.56,3.24 -1.92,1.92 -3,4.44 -1.08,2.4 -1.08,5.04 v 38.16 h -18.84 v -65.4 z m 84.465,-26.04 v 15.24 h -19.44 v -15.24 z m -0.24,26.04 v 65.4 h -18.84 v -65.4 z m 44.145,-1.92 q 13.68,0 21.12,5.88 7.44,5.76 7.44,15.96 v 1.44 h -15.72 v -0.36 q 0,-4.56 -3.48,-6.96 -3.36,-2.52 -9.6,-2.52 -5.16,0 -8.04,1.8 -2.88,1.8 -2.88,4.56 0,1.44 0.72,2.52 0.72,1.08 2.4,2.04 1.68,0.84 4.56,1.68 2.88,0.72 7.08,1.68 6.72,1.2 11.64,2.88 4.92,1.56 8.16,3.96 3.24,2.4 4.8,5.76 1.56,3.36 1.56,7.92 0,4.44 -1.92,8.28 -1.8,3.84 -5.52,6.72 -3.72,2.88 -9.24,4.44 -5.52,1.68 -12.84,1.68 -7.92,0 -13.56,-1.68 -5.52,-1.68 -9.12,-4.56 -3.6,-3 -5.28,-7.08 -1.68,-4.2 -1.68,-9.24 v -2.04 h 15.84 v 1.08 q 0,4.44 3.36,7.2 3.36,2.76 10.68,2.76 6.36,0 9.12,-1.8 2.88,-1.92 2.88,-4.8 0,-1.44 -0.72,-2.52 -0.6,-1.08 -2.28,-1.92 -1.68,-0.96 -4.56,-1.8 -2.88,-0.84 -7.32,-1.92 -6.6,-1.2 -11.52,-2.76 -4.8,-1.68 -8.04,-4.08 -3.12,-2.4 -4.68,-5.64 -1.56,-3.24 -1.56,-7.68 0,-4.32 1.92,-8.04 1.92,-3.84 5.52,-6.72 3.6,-2.88 8.76,-4.44 5.28,-1.68 12,-1.68 z m 72.3448,0 q 7.2,0 12.72,1.92 5.52,1.92 9.24,5.4 3.72,3.36 5.52,7.92 1.92,4.56 1.92,9.72 v 2.16 h -17.16 v -0.24 q 0,-5.28 -3,-8.64 -3,-3.48 -9.48,-3.48 -6.96,0 -10.56,4.68 -3.6,4.68 -3.6,12.6 v 5.16 q 0,7.92 3.6,12.6 3.6,4.68 10.56,4.68 6.48,0 9.48,-3.36 3,-3.36 3,-8.76 v -0.12 h 17.16 v 2.04 q 0,5.16 -1.92,9.72 -1.92,4.44 -5.64,7.92 -3.6,3.36 -9.12,5.4 -5.52,1.92 -12.72,1.92 -15.72,0 -24.24,-8.76 -8.52,-8.88 -8.52,-24.48 v -2.76 q 0,-7.68 2.28,-13.8 2.28,-6.24 6.48,-10.56 4.32,-4.32 10.32,-6.6 6.12,-2.28 13.68,-2.28 z m 62.5051,-26.52 v 38.64 q 4.2,-5.28 9.36,-8.52 5.28,-3.24 13.2,-3.24 10.2,0 15.96,6.12 5.88,6.12 5.88,16.8 v 44.04 h -18.72 v -40.8 q 0,-5.16 -2.76,-8.16 -2.64,-3.12 -8.28,-3.12 -3.24,0 -6,1.2 -2.64,1.2 -4.56,3.24 -1.92,1.92 -3,4.44 -1.08,2.4 -1.08,5.04 v 38.16 h -18.84 v -93.84 z m 90.825,26.52 q 8.04,0 13.92,2.4 6,2.4 9.84,6.72 3.96,4.32 5.76,10.2 1.92,5.88 1.92,12.72 v 6.72 h -46.56 v 0.12 q 0,7.68 3.96,11.76 4.08,3.96 12.12,3.96 3.84,0 6.48,-0.72 2.76,-0.84 4.44,-2.04 1.68,-1.2 2.4,-2.64 0.84,-1.44 0.84,-2.76 v -0.12 h 16.08 v 0.72 q 0,4.56 -2.04,8.64 -1.92,3.96 -5.76,6.96 -3.84,3 -9.6,4.8 -5.64,1.8 -13.08,1.8 -8.28,0 -14.52,-2.28 -6.24,-2.4 -10.44,-6.72 -4.08,-4.32 -6.12,-10.32 -2.04,-6 -2.04,-13.32 v -3.48 q 0,-7.2 2.16,-13.32 2.16,-6.12 6.24,-10.44 4.2,-4.44 10.2,-6.84 6,-2.52 13.8,-2.52 z m 0,14.4 q -11.4,0 -14.28,9.36 -0.6,2.16 -0.84,5.16 h 29.04 q -0.12,-1.32 -0.24,-2.52 -0.12,-1.2 -0.36,-2.28 -1.2,-4.92 -4.44,-7.32 -3.12,-2.4 -8.88,-2.4 z m 71.265,-14.4 q 13.68,0 21.12,5.88 7.44,5.76 7.44,15.96 v 1.44 h -15.72 v -0.36 q 0,-4.56 -3.48,-6.96 -3.36,-2.52 -9.6,-2.52 -5.16,0 -8.04,1.8 -2.88,1.8 -2.88,4.56 0,1.44 0.72,2.52 0.72,1.08 2.4,2.04 1.68,0.84 4.56,1.68 2.88,0.72 7.08,1.68 6.72,1.2 11.64,2.88 4.92,1.56 8.16,3.96 3.24,2.4 4.8,5.76 1.56,3.36 1.56,7.92 0,4.44 -1.92,8.28 -1.8,3.84 -5.52,6.72 -3.72,2.88 -9.24,4.44 -5.52,1.68 -12.84,1.68 -7.92,0 -13.56,-1.68 -5.52,-1.68 -9.12,-4.56 -3.6,-3 -5.28,-7.08 -1.68,-4.2 -1.68,-9.24 v -2.04 h 15.84 v 1.08 q 0,4.44 3.36,7.2 3.36,2.76 10.68,2.76 6.36,0 9.12,-1.8 2.88,-1.92 2.88,-4.8 0,-1.44 -0.72,-2.52 -0.6,-1.08 -2.28,-1.92 -1.68,-0.96 -4.56,-1.8 -2.88,-0.84 -7.32,-1.92 -6.6,-1.2 -11.52,-2.76 -4.8,-1.68 -8.04,-4.08 -3.12,-2.4 -4.68,-5.64 -1.56,-3.24 -1.56,-7.68 0,-4.32 1.92,-8.04 1.92,-3.84 5.52,-6.72 3.6,-2.88 8.76,-4.44 5.28,-1.68 12,-1.68 z"
           id="path18" /><path
           style="line-height:1.1"
           d="m 497.99255,-513.22376 q 9,0 15.84,2.28 6.84,2.28 11.4,6.24 4.68,3.96 6.96,9.36 2.28,5.4 2.28,11.76 v 2.28 h -19.32 v -0.84 q 0,-6.48 -4.32,-10.68 -4.2,-4.32 -12.96,-4.32 -10.32,0 -15.84,6.6 -5.4,6.48 -5.4,17.64 v 10.2 q 0,11.28 5.52,17.88 5.52,6.48 15.24,6.48 4.44,0 8.04,-1.2 3.6,-1.32 6.12,-3.6 2.52,-2.28 3.84,-5.4 1.44,-3.12 1.44,-6.96 v -1.8 h -19.2 v -13.2 h 37.92 v 45.96 h -8.76 l -3.12,-13.8 q -1.8,3.12 -4.44,6 -2.64,2.76 -6.24,4.92 -3.48,2.16 -8.04,3.36 -4.56,1.32 -10.44,1.32 -8.28,0 -15.24,-2.76 -6.96,-2.76 -11.88,-7.8 -4.92,-5.16 -7.68,-12.36 -2.76,-7.32 -2.76,-16.44 v -10.92 q 0,-8.88 2.76,-16.2 2.76,-7.44 8.04,-12.72 5.28,-5.4 12.84,-8.28 7.68,-3 17.4,-3 z m 67.42511,23.28 16.68,45.96 h 0.24 l 15.6,-45.96 h 18.72 l -24,61.32 q -2.88,6.84 -5.52,11.76 -2.64,4.92 -6.24,8.04 -3.6,3.24 -8.64,4.8 -5.04,1.56 -12.48,1.56 h -7.08 v -13.56 h 2.4 q 6.48,0 10.2,-1.56 3.72,-1.56 5.4,-6 l 0.96,-2.4 -25.68,-63.96 z m 80.9849,65.4 h -18.84 v -65.4 h 16.08 l 1.44,11.64 q 4.2,-5.76 9.6,-9.48 5.4,-3.72 13.68,-3.72 7.32,0 12.24,3.24 5.04,3.24 7.32,9.12 4.08,-5.28 9.6,-8.76 5.64,-3.6 14.04,-3.6 10.08,0 15.72,6 5.76,6 5.76,16.56 v 44.4 h -18.96 v -41.04 q 0,-5.04 -2.52,-8.04 -2.4,-3 -7.68,-3 -3.24,0 -5.88,1.2 -2.64,1.08 -4.56,3 -1.8,1.92 -2.88,4.32 -0.96,2.4 -0.96,4.92 v 38.64 h -18.72 v -41.04 q 0,-5.04 -2.52,-8.04 -2.4,-3 -7.8,-3 -3.24,0 -5.88,1.2 -2.64,1.08 -4.44,3 -1.8,1.92 -2.88,4.32 -0.96,2.4 -0.96,4.92 z m 120.34504,-65.4 1.44,11.76 q 4.32,-5.76 9.84,-9.48 5.64,-3.84 14.04,-3.84 10.2,0 15.96,6.12 5.88,6.12 5.88,16.8 v 44.04 h -18.72 v -40.8 q 0,-5.16 -2.76,-8.16 -2.64,-3.12 -8.28,-3.12 -3.24,0 -6,1.2 -2.64,1.2 -4.56,3.24 -1.92,1.92 -3,4.44 -1.08,2.4 -1.08,5.04 v 38.16 h -18.84 v -65.4 z m 87.34501,54.48 q 3.36,0 6.24,-1.08 2.88,-1.08 5.04,-3 2.16,-1.92 3.36,-4.56 1.32,-2.64 1.32,-5.64 v -4.68 q -7.68,0.6 -12.24,1.56 -4.56,0.96 -7.2,2.28 -3,1.56 -3.96,3.48 -0.96,1.8 -0.96,4.2 0,3.48 2.04,5.52 2.16,1.92 6.36,1.92 z m 17.04,-0.6 q -4.2,6 -9.84,9.36 -5.52,3.24 -13.92,3.24 -9.36,0 -14.64,-4.44 -5.16,-4.44 -5.16,-13.08 0,-5.28 2.04,-9.24 2.16,-3.96 7.92,-6.84 4.56,-2.28 12.48,-3.84 7.92,-1.56 20.04,-2.4 v -3.48 q 0,-5.04 -2.52,-7.8 -2.52,-2.76 -8.64,-2.76 -11.4,0 -11.4,9.48 v 0.6 h -16.8 v -1.44 q 0,-4.68 1.56,-8.88 1.68,-4.2 5.16,-7.32 3.48,-3.24 8.88,-5.16 5.4,-1.92 12.96,-1.92 15,0 21.96,7.08 7.08,7.08 7.08,19.08 v 24.12 q 0,3.48 1.32,4.68 1.44,1.08 5.76,1.32 v 11.4 h -6.84 q -3.84,0 -6.84,-0.48 -2.88,-0.48 -5.04,-1.8 -2.04,-1.32 -3.48,-3.6 -1.32,-2.28 -2.04,-5.88 z m 61.66505,-55.8 q 13.68,0 21.12,5.88 7.44,5.76 7.44,15.96 v 1.44 h -15.72 v -0.36 q 0,-4.56 -3.48,-6.96 -3.36,-2.52 -9.6,-2.52 -5.16,0 -8.04,1.8 -2.88,1.8 -2.88,4.56 0,1.44 0.72,2.52 0.72,1.08 2.4,2.04 1.68,0.84 4.56,1.68 2.88,0.72 7.08,1.68 6.72,1.2 11.64,2.88 4.92,1.56 8.16,3.96 3.24,2.4 4.8,5.76 1.56,3.36 1.56,7.92 0,4.44 -1.92,8.28 -1.8,3.84 -5.52,6.72 -3.72,2.88 -9.24,4.44 -5.52,1.68 -12.84,1.68 -7.92,0 -13.56,-1.68 -5.52,-1.68 -9.12,-4.56 -3.6,-3 -5.28,-7.08 -1.68,-4.2 -1.68,-9.24 v -2.04 h 15.84 v 1.08 q 0,4.44 3.36,7.2 3.36,2.76 10.68,2.76 6.36,0 9.12,-1.8 2.88,-1.92 2.88,-4.8 0,-1.44 -0.72,-2.52 -0.6,-1.08 -2.28,-1.92 -1.68,-0.96 -4.56,-1.8 -2.88,-0.84 -7.32,-1.92 -6.6,-1.2 -11.52,-2.76 -4.8,-1.68 -8.04,-4.08 -3.12,-2.4 -4.68,-5.64 -1.56,-3.24 -1.56,-7.68 0,-4.32 1.92,-8.04 1.92,-3.84 5.52,-6.72 3.6,-2.88 8.76,-4.44 5.28,-1.68 12,-1.68 z m 63.22492,-24.12 v 15.24 h -19.44 v -15.24 z m -0.24,26.04 v 65.4 h -18.84 v -65.4 z m 36.94492,0 v 40.8 q 0,5.16 2.52,8.28 2.64,3 8.28,3 3.24,0 6,-1.2 2.76,-1.2 4.68,-3.12 1.92,-1.92 3,-4.44 1.08,-2.52 1.08,-5.16 v -38.16 h 18.84 v 65.4 h -16.08 l -1.56,-11.64 q -4.2,5.64 -9.84,9.48 -5.64,3.84 -13.92,3.84 -10.32,0 -16.2,-6.12 -5.76,-6.24 -5.76,-16.92 v -44.04 z m 81.705,65.4 h -18.84 v -65.4 h 16.08 l 1.44,11.64 q 4.2,-5.76 9.6,-9.48 5.4,-3.72 13.68,-3.72 7.32,0 12.24,3.24 5.04,3.24 7.32,9.12 4.08,-5.28 9.6,-8.76 5.64,-3.6 14.04,-3.6 10.08,0 15.72,6 5.76,6 5.76,16.56 v 44.4 h -18.96 v -41.04 q 0,-5.04 -2.52,-8.04 -2.4,-3 -7.68,-3 -3.24,0 -5.88,1.2 -2.64,1.08 -4.56,3 -1.8,1.92 -2.88,4.32 -0.96,2.4 -0.96,4.92 v 38.64 h -18.72 v -41.04 q 0,-5.04 -2.52,-8.04 -2.4,-3 -7.8,-3 -3.24,0 -5.88,1.2 -2.64,1.08 -4.44,3 -1.8,1.92 -2.88,4.32 -0.96,2.4 -0.96,4.92 z"
           id="path19" /><path
           style="font-weight:normal;line-height:1.8;font-family:Sans;-inkscape-font-specification:'Sans, Normal'"
           d="m 483.71255,-329.31147 q 16.8,0 24.48,6.6 7.68,6.6 7.68,18.6 0,7.08 -3.24,13.32 -3.12,6.12 -10.68,9.96 -7.44,3.84 -20.28,3.84 h -9.84 v 33.36 h -10.8 v -85.68 z m -0.96,9.24 h -10.92 v 33.84 h 8.64 q 12.24,0 18.24,-3.96 6,-3.96 6,-13.44 0,-8.28 -5.28,-12.36 -5.28,-4.08 -16.68,-4.08 z m 59.02494,12 q 0,4.8 -0.6,9 h 0.72 q 3.12,-4.92 8.4,-7.44 5.4,-2.52 11.64,-2.52 11.76,0 17.64,5.64 5.88,5.52 5.88,17.88 v 41.88 h -10.44 v -41.16 q 0,-15.48 -14.4,-15.48 -10.8,0 -14.88,6.12 -3.96,6 -3.96,17.28 v 33.24 h -10.56 v -91.2 h 10.56 z m 52.54501,0.12 h 11.28 l 13.92,36.6 q 1.8,4.8 3.24,9.24 1.44,4.32 2.16,8.28 h 0.48 q 0.72,-3 2.28,-7.8 1.56,-4.92 3.24,-9.84 l 13.08,-36.48 h 11.4 l -27.72,73.2 q -3.36,9.12 -8.76,14.52 -5.28,5.4 -14.64,5.4 -2.88,0 -5.04,-0.36 -2.16,-0.24 -3.72,-0.6 v -8.4 q 1.32,0.24 3.12,0.48 1.92,0.24 3.96,0.24 5.52,0 8.88,-3.12 3.48,-3.12 5.4,-8.28 l 3.36,-8.52 z m 112.18502,46.56 q 0,9.36 -6.96,14.16 -6.96,4.8 -18.72,4.8 -6.72,0 -11.64,-1.08 -4.8,-1.08 -8.52,-3 v -9.6 q 3.84,1.92 9.24,3.6 5.52,1.56 11.16,1.56 8.04,0 11.64,-2.52 3.6,-2.64 3.6,-6.96 0,-2.4 -1.32,-4.32 -1.32,-1.92 -4.8,-3.84 -3.36,-1.92 -9.72,-4.32 -6.24,-2.4 -10.68,-4.8 -4.44,-2.4 -6.84,-5.76 -2.4,-3.36 -2.4,-8.64 0,-8.16 6.6,-12.6 6.72,-4.44 17.52,-4.44 5.88,0 10.92,1.2 5.16,1.08 9.6,3.12 l -3.6,8.4 q -4.08,-1.68 -8.52,-2.88 -4.44,-1.2 -9.12,-1.2 -6.48,0 -9.96,2.16 -3.36,2.04 -3.36,5.64 0,2.64 1.56,4.56 1.56,1.8 5.16,3.6 3.72,1.68 9.84,4.08 6.12,2.28 10.44,4.68 4.32,2.4 6.6,5.88 2.28,3.36 2.28,8.52 z m 20.02501,-70.68 q 2.4,0 4.2,1.68 1.92,1.56 1.92,5.04 0,3.36 -1.92,5.04 -1.8,1.68 -4.2,1.68 -2.64,0 -4.44,-1.68 -1.8,-1.68 -1.8,-5.04 0,-3.48 1.8,-5.04 1.8,-1.68 4.44,-1.68 z m 5.16,24.12 v 64.32 h -10.56 v -64.32 z m 29.86492,20.76 q 0,1.92 -0.24,5.04 -0.12,3.12 -0.24,5.4 h 0.48 q 0.72,-0.96 2.16,-2.76 1.44,-1.8 2.88,-3.6 1.56,-1.92 2.64,-3.12 l 20.52,-21.72 h 12.36 l -26.04,27.48 27.84,36.84 h -12.72 l -22.32,-30 -7.32,6.36 v 23.64 h -10.44 v -91.2 h 10.44 z m 94.54507,25.8 q 0,9.36 -6.96,14.16 -6.96,4.8 -18.72,4.8 -6.72,0 -11.64,-1.08 -4.8,-1.08 -8.52,-3 v -9.6 q 3.84,1.92 9.24,3.6 5.52,1.56 11.16,1.56 8.04,0 11.64,-2.52 3.6,-2.64 3.6,-6.96 0,-2.4 -1.32,-4.32 -1.32,-1.92 -4.8,-3.84 -3.36,-1.92 -9.72,-4.32 -6.24,-2.4 -10.68,-4.8 -4.44,-2.4 -6.84,-5.76 -2.4,-3.36 -2.4,-8.64 0,-8.16 6.6,-12.6 6.72,-4.44 17.52,-4.44 5.88,0 10.92,1.2 5.16,1.08 9.6,3.12 l -3.6,8.4 q -4.08,-1.68 -8.52,-2.88 -4.44,-1.2 -9.12,-1.2 -6.48,0 -9.96,2.16 -3.36,2.04 -3.36,5.64 0,2.64 1.56,4.56 1.56,1.8 5.16,3.6 3.72,1.68 9.84,4.08 6.12,2.28 10.44,4.68 4.32,2.4 6.6,5.88 2.28,3.36 2.28,8.52 z m 38.98501,-47.64 q 11.76,0 17.4,5.16 5.64,5.16 5.64,16.44 v 43.8 h -7.68 l -2.04,-9.12 h -0.48 q -4.2,5.28 -8.88,7.8 -4.56,2.52 -12.72,2.52 -8.76,0 -14.52,-4.56 -5.76,-4.68 -5.76,-14.52 0,-9.6 7.56,-14.76 7.56,-5.28 23.28,-5.76 l 10.92,-0.36 v -3.84 q 0,-8.04 -3.48,-11.16 -3.48,-3.12 -9.84,-3.12 -5.04,0 -9.6,1.56 -4.56,1.44 -8.52,3.36 l -3.24,-7.92 q 4.2,-2.28 9.96,-3.84 5.76,-1.68 12,-1.68 z m 3.12,34.32 q -12,0.48 -16.68,3.84 -4.56,3.36 -4.56,9.48 0,5.4 3.24,7.92 3.36,2.52 8.52,2.52 8.16,0 13.56,-4.44 5.4,-4.56 5.4,-13.92 v -5.76 z m 109.42507,-34.44 q 10.92,0 16.32,5.64 5.4,5.52 5.4,18 v 41.88 h -10.44 v -41.4 q 0,-15.24 -13.08,-15.24 -9.35998,0 -13.43998,5.4 -3.96,5.4 -3.96,15.72 v 35.52 h -10.44 v -41.4 q 0,-15.24 -13.2,-15.24 -9.72,0 -13.44,6 -3.72,6 -3.72,17.28 v 33.36 h -10.56 v -64.32 h 8.52 l 1.56,8.76 h 0.6 q 3,-5.04 8.04,-7.44 5.16,-2.52 10.92,-2.52 15.12,0 19.68,10.8 h 0.6 q 3.24,-5.52 8.76,-8.16 5.63998,-2.64 11.87998,-2.64 z m 111.225,0 q 10.92,0 16.32,5.64 5.4,5.52 5.4,18 v 41.88 h -10.44 v -41.4 q 0,-15.24 -13.08,-15.24 -9.36,0 -13.44,5.4 -3.96,5.4 -3.96,15.72 v 35.52 h -10.44 v -41.4 q 0,-15.24 -13.2,-15.24 -9.72,0 -13.44,6 -3.72,6 -3.72,17.28 v 33.36 h -10.56 v -64.32 h 8.52 l 1.56,8.76 h 0.6 q 3,-5.04 8.04,-7.44 5.16,-2.52 10.92,-2.52 15.12,0 19.68,10.8 h 0.6 q 3.24,-5.52 8.76,-8.16 5.64,-2.64 11.88,-2.64 z m 51.2249,65.52 h -10.56 v -91.2 h 10.56 z m 73.1849,-64.32 v 64.32 h -8.64 l -1.56,-8.52 h -0.48 q -3.12,5.04 -8.64,7.44 -5.52,2.28 -11.76,2.28 -11.64,0 -17.52,-5.52 -5.88,-5.64 -5.88,-17.88 v -42.12 h 10.68 v 41.4 q 0,15.36 14.28,15.36 10.68,0 14.76,-6 4.2,-6 4.2,-17.28 v -33.48 z m 50.385,-1.2 q 11.52,0 17.4,5.64 5.88,5.52 5.88,18 v 41.88 h -10.44 v -41.16 q 0,-15.48 -14.4,-15.48 -10.68,0 -14.76,6 -4.08,6 -4.08,17.28 v 33.36 h -10.56 v -64.32 h 8.52 l 1.56,8.76 h 0.6 q 3.12,-5.04 8.64,-7.44 5.52,-2.52 11.64,-2.52 z m 65.0251,0 q 6.36,0 11.4,2.4 5.16,2.4 8.76,7.32 h 0.6 l 1.44,-8.52 h 8.4 v 65.4 q 0,13.8 -7.08,20.76 -6.96,6.96 -21.72,6.96 -14.16,0 -23.16,-4.08 v -9.72 q 9.48,5.04 23.76,5.04 8.28,0 12.96,-4.92 4.8,-4.8 4.8,-13.2 v -2.52 q 0,-1.44 0.12,-4.08 0.12,-2.76 0.24,-3.84 h -0.48 q -6.48,9.72 -19.92,9.72 -12.48,0 -19.56,-8.76 -6.96,-8.76 -6.96,-24.48 0,-15.36 6.96,-24.36 7.08,-9.12 19.44,-9.12 z m 1.44,8.88 q -8.04,0 -12.48,6.48 -4.44,6.36 -4.44,18.24 0,11.88 4.32,18.24 4.44,6.24 12.84,6.24 9.72,0 14.16,-5.16 4.44,-5.28 4.44,-16.92 v -2.52 q 0,-13.2 -4.56,-18.84 -4.56,-5.76 -14.28,-5.76 z"
           id="path20" /></g></g></g></svg>
