<?xml version="1.0" encoding="UTF-8" standalone="no"?>
<svg
   inkscape:version="1.4.2 (ebf0e940d0, 2025-05-08)"
   sodipodi:docname="Logo_LG_Physiksammlung.svg"
   viewBox="0 0 1627.9486 737.00798"
   height="737.008"
   width="1627.9486"
   xml:space="preserve"
   id="svg2"
   version="1.1"
   xmlns:inkscape="http://www.inkscape.org/namespaces/inkscape"
   xmlns:sodipodi="http://sodipodi.sourceforge.net/DTD/sodipodi-0.dtd"
   xmlns="http://www.w3.org/2000/svg"
   xmlns:svg="http://www.w3.org/2000/svg"
   xmlns:rdf="http://www.w3.org/1999/02/22-rdf-syntax-ns#"
   xmlns:cc="http://creativecommons.org/ns#"
   xmlns:dc="http://purl.org/dc/elements/1.1/"><metadata
     id="metadata8"><rdf:RDF><cc:Work
         rdf:about=""><dc:format>image/svg+xml</dc:format><dc:type
           rdf:resource="http://purl.org/dc/dcmitype/StillImage" /></cc:Work></rdf:RDF></metadata><defs
     id="defs6"><clipPath
       clipPathUnits="userSpaceOnUse"
       id="clipPath1"><path
         id="path1"
         d="m -272.3815,403.212 h 1190.55 v -841.89 h -1190.55 z"
         style="stroke-width:0.999998" /></clipPath><clipPath
       clipPathUnits="userSpaceOnUse"
       id="clipPath2"><path
         id="path2"
         d="m -173.0166,291.6413 h 1190.55 v -841.89 h -1190.55 z"
         style="stroke-width:0.999998" /></clipPath></defs><sodipodi:namedview
     inkscape:current-layer="g18"
     inkscape:window-maximized="1"
     inkscape:window-y="0"
     inkscape:window-x="0"
     inkscape:cy="404.48276"
     inkscape:cx="873.20689"
     inkscape:zoom="0.21014493"
     showgrid="false"
     id="namedview4"
     inkscape:window-height="1371"
     inkscape:window-width="2560"
     inkscape:pageshadow="2"
     inkscape:pageopacity="0"
     guidetolerance="10"
     gridtolerance="10"
     objecttolerance="10"
     borderopacity="1"
     bordercolor="#666666"
     pagecolor="#ffffff"
     inkscape:showpageshadow="2"
     inkscape:pagecheckerboard="0"
     inkscape:deskcolor="#d1d1d1"
     showguides="true"><sodipodi:guide
       position="453.91734,643.70275"
       orientation="1,0"
       id="guide4"
       inkscape:locked="false" /><sodipodi:guide
       position="123.07733,368.49693"
       orientation="0,-1"
       id="guide8"
       inkscape:locked="false" /><sodipodi:guide
       position="782.8695,531.14512"
       orientation="0,-1"
       id="guide1"
       inkscape:locked="false" /></sodipodi:namedview><g
     transform="matrix(1.3333333,0,0,-1.3333333,-183.21946,939.21331)"
     inkscape:label="Logo_LGY"
     inkscape:groupmode="layer"
     id="g10"><g
       id="g18"><path
         id="path140"
         style="fill:#cf472e;fill-opacity:1;fill-rule:nonzero;stroke:none"
         d="M 138.228,151.654 H 414.606 V 428.032 H 138.228 Z" /><path
         id="path142"
         style="fill:#000000;fill-opacity:1;fill-rule:nonzero;stroke:none"
         d="M 138.228,428.032 H 414.606 V 704.41 H 138.228 Z" /><g
         transform="translate(173.0166,550.2487)"
         id="g144"
         clip-path="url(#clipPath2)"><path
           id="path146"
           style="fill:#ffffff;fill-opacity:1;fill-rule:nonzero;stroke:none"
           d="m 0,0 v -91.574 h 56.706 v -30.648 H -35.602 V 0 Z" /></g><g
         transform="translate(288.82285,425.4585)"
         id="g148"
         clip-path="url(#clipPath1)"><path
           id="path150"
           style="fill:#ffffff;fill-opacity:1;fill-rule:nonzero;stroke:none"
           d="m 0,0 c -34.501,0 -54.323,20.919 -54.323,55.421 v 16.15 c 0,33.583 22.941,55.972 60.744,55.972 33.768,0 54.138,-15.965 54.138,-43.494 V 81.664 H 25.324 v 1.652 c 0,8.44 -5.505,15.231 -18.903,15.231 -16.517,0 -24.59,-11.378 -24.59,-27.71 V 56.339 c 0,-17.435 7.158,-28.262 24.041,-28.262 13.395,0 22.205,7.525 23.124,18.718 H 5.506 V 69.367 H 62.394 V 2.568 H 47.529 L 42.208,20.737 C 35.05,9.908 22.387,0 0,0" /></g><g
         id="text1"
         style="font-size:168px;line-height:0;font-family:'Adwaita Sans';-inkscape-font-specification:'Adwaita Sans, @opsz=32,wght=300';font-variation-settings:'opsz' 32, 'wght' 300;letter-spacing:0px;stroke-width:6"
         transform="scale(1,-1)"
         aria-label="PHYSIK&#10;SAMMLUNG"><path
           style="line-height:1.8;-inkscape-font-specification:'Adwaita Sans, @opsz=32';font-variation-settings:'opsz' 32"
           d="m 477.85263,-429.99545 v -122.22657 h 43.80469 q 12.79687,0 22.0664,4.51172 9.35157,4.51172 14.35547,12.87891 5.08594,8.28516 5.08594,19.6875 0,11.40234 -5.25,19.76953 -5.16797,8.28516 -14.68359,12.87891 -9.4336,4.51172 -22.23047,4.51172 h -35.76563 v -13.125 h 35.92969 q 8.53125,0 14.60156,-2.8711 6.15235,-2.95312 9.4336,-8.36719 3.36328,-5.41406 3.36328,-12.79687 0,-7.46484 -3.36328,-12.79688 -3.28125,-5.33203 -9.4336,-8.20312 -6.07031,-2.95313 -14.60156,-2.95313 h -28.54687 v 109.10157 z m 102.78516,0 v -122.22657 h 14.76562 v 53.07422 h 65.13281 v -53.07422 h 14.76563 v 122.22657 h -14.76563 v -56.02735 h -65.13281 v 56.02735 z m 153.39843,0 v -50.36719 l -44.95312,-71.85938 h 17.0625 l 24.52734,39.53907 q 3.69141,5.90625 7.13672,11.8125 3.44531,5.90625 6.89063,11.8125 h -6.31641 q 3.36328,-5.90625 6.80859,-11.8125 3.52735,-5.90625 7.13672,-11.8125 l 24.44532,-39.53907 h 16.98046 l -44.95312,71.85938 v 50.36719 z m 113.85938,1.96875 q -14.10938,0 -24.44531,-5.00391 -10.33594,-5.08594 -15.9961,-14.35547 -5.66015,-9.26953 -5.66015,-21.98437 h 15.09375 q 0,8.69531 3.60937,15.01172 3.69141,6.23437 10.66406,9.59765 6.97266,3.28125 16.73438,3.28125 8.94141,0 15.50391,-2.625 6.64453,-2.625 10.33593,-7.46484 3.69141,-4.83985 3.69141,-11.40235 0,-5.08593 -2.37891,-8.85937 -2.3789,-3.77344 -7.71093,-6.5625 -5.25,-2.87109 -14.10938,-5.00391 l -13.69922,-3.36328 q -18.70312,-4.59375 -26.98828,-12.30469 -8.28516,-7.71093 -8.28516,-20.17968 0,-10.58203 5.16797,-18.375 5.25,-7.875 14.76563,-12.22266 9.51562,-4.34766 22.23047,-4.34766 12.71484,0 22.0664,4.67579 9.4336,4.59375 14.6836,13.125 5.25,8.53125 5.57812,20.26171 H 874.1456 q -0.65625,-11.48437 -8.20313,-17.96484 -7.54687,-6.5625 -20.01562,-6.5625 -7.875,0 -14.02734,2.625 -6.07032,2.625 -9.59766,7.30078 -3.44531,4.67578 -3.44531,10.7461 0,4.75781 2.46093,8.28515 2.46094,3.52735 7.79297,6.23438 5.41407,2.70703 14.27344,4.92187 l 13.86328,3.44531 q 8.94141,2.21485 15.50391,5.33204 6.5625,3.11718 10.82812,7.21875 4.34766,4.10156 6.48047,9.35156 2.13281,5.16797 2.13281,11.5664 0,10.58204 -5.57812,18.6211 -5.49609,8.03906 -15.50391,12.55078 -9.92578,4.42969 -23.21484,4.42969 z m 77.60156,-124.19532 v 122.22657 h -14.76562 v -122.22657 z m 34.28906,87.28125 v -19.35937 q 4.26563,-4.75781 8.53125,-9.35156 4.26563,-4.67578 8.53125,-9.35157 4.34766,-4.67578 8.69532,-9.35156 l 37.07816,-39.86719 h 19.5234 l -52.17188,55.61719 h -0.73828 z m -10.00781,34.94532 v -122.22657 h 14.76563 v 42.57422 25.92188 7.21875 46.51172 z m 74.89449,0 -44.87105,-62.75391 9.10547,-11.64844 53.23828,74.40235 z"
           id="path3" /><path
           style="-inkscape-font-specification:'Adwaita Sans, @opsz=32,wght=100';font-variation-settings:'opsz' 32, 'wght' 100"
           d="m 511.48544,-276.99077 q -11.07422,0 -19.4414,-3.85547 -8.36719,-3.85547 -13.20703,-10.74609 -4.83985,-6.89063 -5.41407,-15.91406 h 3.77344 q 0.57422,7.95703 4.92188,14.02734 4.34765,5.98828 11.8125,9.35156 7.54687,3.36328 17.55468,3.36328 10.58203,0 18.45703,-3.60937 7.875,-3.69141 12.22266,-10.25391 4.42969,-6.5625 4.42969,-15.17578 0,-6.5625 -2.8711,-11.56641 -2.87109,-5.0039 -9.02343,-8.85937 -6.07032,-3.9375 -15.9961,-6.97266 l -13.78125,-4.26562 q -14.4375,-4.51172 -21.57422,-11.89453 -7.13671,-7.38282 -7.13671,-17.96485 0,-9.02343 4.67578,-16.16015 4.75781,-7.13672 12.96093,-11.23828 8.20313,-4.10157 18.6211,-4.10157 10.5,0 18.375,4.1836 7.95703,4.18359 12.63281,11.48437 4.67578,7.21875 5.25,16.65235 h -3.77344 q -0.90234,-12.46875 -9.59765,-20.50782 -8.69532,-8.03906 -22.88672,-8.03906 -9.26953,0 -16.65235,3.60938 -7.38281,3.52734 -11.64843,9.84375 -4.1836,6.23437 -4.1836,14.27343 0,6.07032 2.78907,11.07422 2.87109,4.92188 8.61328,8.69531 5.74218,3.77344 14.35547,6.48047 l 13.94531,4.26563 q 7.875,2.46094 13.61719,5.49609 5.82421,3.03516 9.59765,6.8086 3.77344,3.77343 5.57813,8.44921 1.88672,4.59375 1.88672,10.25391 0,9.51563 -4.92188,16.98047 -4.83984,7.38281 -13.61719,11.64844 -8.69531,4.18359 -20.34375,4.18359 z m 48.23438,-1.80469 45.6914,-122.22656 h 5.16797 l 45.77344,122.22656 h -4.01953 l -35.4375,-94.66406 q -2.46094,-6.5625 -4.92188,-13.125 -2.3789,-6.5625 -4.75781,-13.125 h 1.47656 q -2.3789,6.5625 -4.83984,13.125 -2.37891,6.5625 -4.83984,13.125 l -35.27344,94.66406 z m 18.1289,-40.27734 v -3.77344 h 60.375 v 3.77344 z m 93.92579,40.27734 v -122.22656 h 5.25 l 42.24609,97.28906 q 1.23047,2.78907 2.37891,5.57813 1.23046,2.78906 2.3789,5.57812 1.23047,2.78907 2.37891,5.57813 1.23047,2.78906 2.46094,5.57812 h -1.96875 q 1.23046,-2.78906 2.3789,-5.57812 1.23047,-2.78906 2.46094,-5.57813 1.23047,-2.78906 2.37891,-5.57812 1.23046,-2.78906 2.46093,-5.57813 l 42.16407,-97.28906 h 5.25 v 122.22656 h -3.77344 v -93.1875 q 0,-3.28125 0,-6.5625 0,-3.28125 0,-6.5625 0.082,-3.28125 0.082,-6.5625 0,-3.28125 0,-6.5625 h 1.14844 q -1.39453,3.28125 -2.78907,6.5625 -1.39453,3.28125 -2.78906,6.5625 -1.39453,3.28125 -2.87109,6.5625 -1.39453,3.28125 -2.78906,6.5625 l -40.44141,93.1875 h -3.77344 l -40.4414,-93.1875 q -1.39454,-3.28125 -2.8711,-6.5625 -1.39453,-3.28125 -2.78906,-6.5625 -1.39453,-3.28125 -2.78906,-6.5625 -1.39453,-3.28125 -2.78907,-6.5625 h 1.14844 q 0,3.28125 0,6.5625 0,3.28125 0,6.5625 0.082,3.28125 0.082,6.5625 0,3.28125 0,6.5625 v 93.1875 z m 139.78125,0 v -122.22656 h 5.25 l 42.24609,97.28906 q 1.23047,2.78907 2.37891,5.57813 1.23046,2.78906 2.3789,5.57812 1.23047,2.78907 2.37891,5.57813 1.23047,2.78906 2.46094,5.57812 h -1.96875 q 1.23046,-2.78906 2.3789,-5.57812 1.23047,-2.78906 2.46094,-5.57813 1.23047,-2.78906 2.37891,-5.57812 1.23046,-2.78906 2.46093,-5.57813 l 42.16407,-97.28906 h 5.25 v 122.22656 h -3.77344 v -93.1875 q 0,-3.28125 0,-6.5625 0,-3.28125 0,-6.5625 0.082,-3.28125 0.082,-6.5625 0,-3.28125 0,-6.5625 h 1.14844 q -1.39453,3.28125 -2.78907,6.5625 -1.39453,3.28125 -2.78906,6.5625 -1.39453,3.28125 -2.87109,6.5625 -1.39453,3.28125 -2.78906,6.5625 l -40.44141,93.1875 h -3.77344 l -40.4414,-93.1875 q -1.39454,-3.28125 -2.8711,-6.5625 -1.39453,-3.28125 -2.78906,-6.5625 -1.39453,-3.28125 -2.78906,-6.5625 -1.39453,-3.28125 -2.78907,-6.5625 h 1.14844 q 0,3.28125 0,6.5625 0,3.28125 0,6.5625 0.082,3.28125 0.082,6.5625 0,3.28125 0,6.5625 v 93.1875 z m 139.78125,0 v -122.22656 h 3.9375 v 118.45313 h 62.99999 v 3.77343 z m 127.31249,1.3125 q -12.4687,0 -22.4766,-5.57812 -9.9257,-5.66016 -15.75,-15.42188 -5.7421,-9.76172 -5.7421,-22.14843 v -80.39063 h 3.7734 v 80.39063 q 0,11.32031 5.25,20.26171 5.25,8.85938 14.3555,14.02735 9.1054,5.08594 20.5898,5.08594 11.5664,0 20.5898,-5.08594 9.1055,-5.16797 14.3555,-14.02735 5.25,-8.9414 5.25,-20.26171 v -80.39063 h 3.7735 v 80.39063 q 0,12.38671 -5.7422,22.14843 -5.7422,9.76172 -15.75,15.42188 -9.9258,5.57812 -22.4766,5.57812 z m 69.2344,-1.3125 v -122.22656 h 3.6094 l 67.5117,92.77734 q 3.1172,4.26563 6.1523,8.53125 3.0352,4.26563 6.0703,8.53125 3.0352,4.1836 6.0703,8.44922 h -1.4765 q 0,-4.26562 -0.082,-8.44922 0,-4.26562 -0.082,-8.53125 0,-4.26562 0,-8.53125 v -92.77734 h 3.7735 v 122.22656 h -3.6094 l -67.3477,-92.61328 q -3.1172,-4.26562 -6.1523,-8.53125 -3.0352,-4.26562 -6.0703,-8.53125 -3.0352,-4.26562 -6.1524,-8.53125 h 1.3946 q 0,4.26563 0,8.53125 0.082,4.26563 0.082,8.53125 0.082,4.26563 0.082,8.53125 v 92.61328 z m 163.2422,1.3125 q -15.4219,0 -26.9063,-7.79297 -11.4844,-7.79296 -17.8008,-21.82031 -6.3164,-14.10937 -6.3164,-32.73047 0,-18.86718 6.3164,-32.89453 6.3985,-14.02734 17.8008,-21.82031 11.4024,-7.79297 26.5781,-7.79297 10.6641,0 18.8672,3.69141 8.2852,3.60937 14.1094,9.59765 5.8242,5.90625 9.2695,12.79688 3.4453,6.89062 4.5118,13.45312 h -3.8555 q -1.0664,-6.23437 -4.4297,-12.55078 -3.2813,-6.3164 -8.7773,-11.5664 -5.4141,-5.25 -12.879,-8.44922 -7.4648,-3.19922 -16.8164,-3.19922 -14.0273,0 -24.6093,7.30078 -10.5821,7.30078 -16.4883,20.50781 -5.8242,13.20703 -5.8242,30.92578 0,17.39063 5.8242,30.59766 5.8242,13.20703 16.4062,20.58984 10.6641,7.38282 25.0196,7.38282 13.3711,0 23.0507,-5.98829 9.7618,-6.07031 15.0938,-17.22656 5.332,-11.15625 5.332,-26.49609 l 1.6407,0.82031 h -43.9688 v -3.77344 h 46.1016 v 3.60938 q 0,16.07812 -5.9063,27.97265 -5.8242,11.8125 -16.4883,18.375 -10.582,6.48047 -24.8554,6.48047 z"
           id="path4" /></g></g></g></svg>
